<svg xmlns="http://www.w3.org/2000/svg" viewBox="0 0 1600 900" preserveAspectRatio="xMidYMid slice">
  <defs>
    <linearGradient id="bg" x1="0" x2="1" y1="0" y2="1">
      <stop offset="0%" stop-color="#f4f8fb" />
      <stop offset="50%" stop-color="#e4edf5" />
      <stop offset="100%" stop-color="#d6e2ee" />
    </linearGradient>
    <linearGradient id="line" x1="0" x2="1" y1="0" y2="0">
      <stop offset="0%" stop-color="#c3d1df" stop-opacity="0.6" />
      <stop offset="100%" stop-color="#b2c4d6" stop-opacity="0.2" />
    </linearGradient>
  </defs>
  <rect width="1600" height="900" fill="url(#bg)" />
  <g opacity="0.35">
    <path d="M0 180C260 120 520 120 780 180C1040 240 1300 240 1600 180" fill="none" stroke="url(#line)" stroke-width="2" />
    <path d="M0 360C260 300 520 300 780 360C1040 420 1300 420 1600 360" fill="none" stroke="url(#line)" stroke-width="2" />
    <path d="M0 540C260 480 520 480 780 540C1040 600 1300 600 1600 540" fill="none" stroke="url(#line)" stroke-width="2" />
    <path d="M0 720C260 660 520 660 780 720C1040 780 1300 780 1600 720" fill="none" stroke="url(#line)" stroke-width="2" />
  </g>
  <circle cx="1220" cy="220" r="160" fill="#c9d7e4" opacity="0.4" />
  <circle cx="340" cy="620" r="220" fill="#b8cadb" opacity="0.25" />
</svg>
